<svg xmlns="http://www.w3.org/2000/svg" xmlns:xlink="http://www.w3.org/1999/xlink" width="28" height="40" viewBox="0 0 28 40"><defs><clipPath id="a"><rect width="7" height="7" rx="2" transform="translate(4724 2911.176)" fill="#707070" stroke="#707070" stroke-width="1"/></clipPath></defs><g transform="translate(-4719 -2886)"><path d="M3.5,0C5.433,0,7,2.91,7,6.5S5.433,13,3.5,13C2.176,13,1.024,11.635.345,9.318A10.628,10.628,0,0,1,0,6.5C0,2.91,1.567,0,3.5,0Z" transform="translate(4720 2911)"/><path d="M3.5,0C5.433,0,7,2.91,7,6.5S5.433,13,3.5,13C2.176,13,1.024,11.635.345,9.318A10.628,10.628,0,0,1,0,6.5C0,2.91,1.567,0,3.5,0Z" transform="translate(4739 2911)"/><path d="M6,0H22a6,6,0,0,1,6,6V27A13,13,0,0,1,15,40H13A13,13,0,0,1,0,27V6A6,6,0,0,1,6,0Z" transform="translate(4719 2886)" fill="#ff2e2e"/><path d="M4724.506,2910.66h16.668a8.62,8.62,0,0,0,1.761,5.454c2.066,3.019-21.767,2.781-20.257.4A15.427,15.427,0,0,0,4724.506,2910.66Z" fill="#ebebeb"/><path d="M4724.506,2912.771h16.668s-.3-.669,1.761-1.5-21.767-.764-20.257-.109A3.152,3.152,0,0,1,4724.506,2912.771Z" transform="matrix(0.017, 1, -1, 0.017, 7571.402, -1881.517)" fill="#fc5757"/><path d="M1.9,3.112H18.565s-.3-.987,1.761-2.21S-1.44-.225.069.74A4.216,4.216,0,0,1,1.9,3.112Z" transform="matrix(-0.017, 1, -1, -0.017, 4724.853, 2890.262)" fill="#fc5757"/><g transform="translate(4734 2911)" fill="#c8c8c8" stroke="#707070" stroke-width="1"><circle cx="3.5" cy="3.5" r="3.5" stroke="none"/><circle cx="3.5" cy="3.5" r="3" fill="none"/></g><line y2="3" transform="translate(4737.5 2911.5)" fill="none" stroke="#707070" stroke-width="1"/><line x1="2.461" y2="1.737" transform="translate(4735.04 2914.5)" fill="none" stroke="#707070" stroke-width="1"/><line x2="2.724" y2="1.626" transform="translate(4737.5 2914.5)" fill="none" stroke="#707070" stroke-width="1"/><g transform="translate(0 0.824)" clip-path="url(#a)"><path d="M4724.506,2910.66h16.668a7.149,7.149,0,0,0,1.761,4.892c2.066,2.708-21.767,2.494-20.257.356A12.786,12.786,0,0,0,4724.506,2910.66Z" transform="translate(0 0.035)" fill="#707070"/></g><path d="M2,0H24a2,2,0,0,1,2,2V2a0,0,0,0,1,0,0H0A0,0,0,0,1,0,2V2A2,2,0,0,1,2,0Z" transform="translate(4720 2886)" fill="#e00"/></g></svg>